<svg width="1024" height="1024" viewBox="0 0 1024 1024" fill="none" xmlns="http://www.w3.org/2000/svg">
<g clip-path="url(#clip0_9_21)">
<path d="M153.6 196.267H870.4V273.067H550.4V934.4L512 957.867L473.6 934.4V603.733V273.067H153.6V196.267Z" fill="white"/>
<mask id="path-3-inside-1_9_21" fill="white">
<path d="M226.133 371.2L153.6 332.8V750.933L473.6 934.4V850.221L226.133 708.267V371.2Z"/>
</mask>
<path d="M226.133 371.2L153.6 332.8V750.933L473.6 934.4V850.221L226.133 708.267V371.2Z" fill="white"/>
<path d="M225.899 371.642C226.055 371.347 226.211 371.053 226.367 370.758C203.159 358.471 179.951 346.185 156.742 333.898C155.773 333.385 154.803 332.871 153.834 332.358L153.1 331.97V332.8C153.1 472.178 153.1 611.556 153.1 750.933V751.223L153.351 751.367C213.061 785.601 272.77 819.834 332.48 854.067C355.945 867.521 379.411 880.975 402.877 894.428C426.368 907.897 449.86 921.365 473.351 934.834L474.1 935.263V934.4C474.1 906.34 474.1 878.281 474.1 850.221V849.932L473.849 849.788C414.919 815.983 355.988 782.179 297.058 748.375C273.499 734.861 249.941 721.347 226.382 707.833L226.633 708.267C226.633 622.171 226.633 536.076 226.633 449.98C226.633 423.72 226.633 397.46 226.633 371.2C226.3 371.2 225.967 371.2 225.633 371.2C225.633 397.46 225.633 423.72 225.633 449.98C225.633 536.076 225.633 622.171 225.633 708.267V708.556L225.885 708.7C249.443 722.214 273.002 735.728 296.561 749.242C355.491 783.047 414.421 816.851 473.351 850.655L473.1 850.221C473.1 878.281 473.1 906.34 473.1 934.4L473.849 933.966C450.357 920.498 426.866 907.029 403.374 893.561C379.909 880.107 356.443 866.654 332.977 853.2C273.268 818.966 213.558 784.733 153.849 750.5L154.1 750.933C154.1 611.556 154.1 472.178 154.1 332.8L153.366 333.242C154.335 333.755 155.305 334.268 156.274 334.782C179.483 347.068 202.691 359.355 225.899 371.642ZM226.367 370.758L225.899 371.642L225.633 371.2H226.633V370.899L226.367 370.758Z" fill="white" mask="url(#path-3-inside-1_9_21)"/>
<path d="M870.4 332.8L797.867 371.2V708.267L550.4 850.014V934.4L870.4 750.933V332.8Z" fill="white"/>
</g>
<defs>
<clipPath id="clip0_9_21">
<rect width="1024" height="1024" rx="20" fill="white"/>
</clipPath>
</defs>
</svg>
